<?xml version="1.0" encoding="utf-8"?>
<!-- Generator: Adobe Illustrator 23.0.0, SVG Export Plug-In . SVG Version: 6.00 Build 0)  -->
<svg version="1.1" id="Layer_1" xmlns="http://www.w3.org/2000/svg" xmlns:xlink="http://www.w3.org/1999/xlink" x="0px" y="0px"
	 viewBox="0 0 178.86 55.07" style="enable-background:new 0 0 178.86 55.07;" xml:space="preserve">
<style type="text/css">
	.st0{fill-rule:evenodd;clip-rule:evenodd;fill:none;}
	.st1{fill-rule:evenodd;clip-rule:evenodd;fill:#FFD800;}
	.st2{fill-rule:evenodd;clip-rule:evenodd;}
</style>
<rect class="st0" width="178.86" height="55.07"/>
<path class="st1" d="M1.61,2.02h36.04v51.63H1.61V2.02L1.61,2.02z M6.8,48.46h25.63V7.22H6.8V48.46L6.8,48.46z"/>
<path class="st2" d="M61.58,25.19h-2.23c-2.93-4.14-5.83-8.25-8.73-12.89H50.6v12.89h-2.46V7.22h2.23c2.93,4.11,5.83,8.19,8.7,12.81
	h0.05V7.22h2.46V25.19L61.58,25.19z"/>
<path class="st2" d="M67.44,18.08c0.72-2.36,1.43-4.54,2.08-7.32h0.05c0.72,2.77,1.36,4.96,2.03,7.32H67.44L67.44,18.08z
	 M68.62,7.22l-6.21,17.97h2.67l1.56-4.91h5.42l1.41,4.91h3.44L71.19,7.22H68.62L68.62,7.22z"/>
<polygon class="st2" points="79.81,25.19 79.81,9.63 75.09,9.63 75.09,7.22 87.62,7.22 87.62,9.63 82.89,9.63 82.89,25.19 
	79.81,25.19 "/>
<polygon class="st2" points="88.62,7.22 91.68,7.22 91.68,25.19 88.62,25.19 88.62,7.22 "/>
<path class="st2" d="M101.18,22.93c-3.21,0-4.34-3.54-4.34-6.98c0-3.31,1.28-6.47,4.34-6.47c3.05,0,4.33,3.16,4.33,6.47
	C105.51,19.38,104.38,22.93,101.18,22.93L101.18,22.93z M101.18,25.49c4.7,0,7.62-4.18,7.62-9.55c0-5.03-3.23-9.04-7.62-9.04
	c-4.39,0-7.63,4.01-7.63,9.04C93.54,21.31,96.47,25.49,101.18,25.49L101.18,25.49z"/>
<path class="st2" d="M124.13,25.19h-2.23c-2.93-4.14-5.83-8.25-8.73-12.89h-0.03v12.89h-2.46V7.22h2.23
	c2.93,4.11,5.83,8.19,8.7,12.81h0.05V7.22h2.47V25.19L124.13,25.19z"/>
<path class="st2" d="M129.98,18.08c0.72-2.36,1.44-4.54,2.08-7.32h0.05c0.72,2.77,1.36,4.96,2.03,7.32H129.98L129.98,18.08z
	 M131.16,7.22l-6.21,17.97h2.67l1.56-4.91h5.42l1.41,4.91h3.44l-5.73-17.97H131.16L131.16,7.22z"/>
<polygon class="st2" points="140.35,7.22 143.41,7.22 143.41,22.78 149.49,22.78 149.49,25.19 140.35,25.19 140.35,7.22 "/>
<path class="st2" d="M59.69,40.22v7.42c-1.64,0.64-3.37,1.1-5.11,1.1c-5.29,0-8.63-4.11-8.63-9.4c0-4.91,3.34-9.19,8.73-9.19
	c1.67,0,3.34,0.62,4.36,1.39l-1,2.13c-0.82-0.51-2.11-0.95-3.29-0.95c-3.28,0-5.52,2.59-5.52,6.68c0,4.26,2.57,6.77,5.21,6.77
	c0.82,0,1.51-0.1,2.16-0.43v-5.52H59.69L59.69,40.22z"/>
<polygon class="st2" points="70.71,32.88 65.57,32.88 65.57,37.81 70.6,37.81 70.6,40.22 65.57,40.22 65.57,46.02 71.63,46.02 
	71.63,48.44 62.48,48.44 62.48,30.47 70.71,30.47 70.71,32.88 "/>
<path class="st2" d="M80.21,46.18c-3.21,0-4.34-3.54-4.34-6.98c0-3.31,1.28-6.47,4.34-6.47c3.05,0,4.33,3.16,4.33,6.47
	C84.54,42.64,83.41,46.18,80.21,46.18L80.21,46.18z M80.21,48.75c4.7,0,7.62-4.18,7.62-9.55c0-5.03-3.23-9.04-7.62-9.04
	c-4.4,0-7.63,4.01-7.63,9.04C72.58,44.56,75.5,48.75,80.21,48.75L80.21,48.75z"/>
<path class="st2" d="M102.62,40.22v7.42c-1.65,0.64-3.36,1.1-5.11,1.1c-5.29,0-8.63-4.11-8.63-9.4c0-4.91,3.34-9.19,8.73-9.19
	c1.67,0,3.34,0.62,4.36,1.39l-1,2.13c-0.82-0.51-2.1-0.95-3.28-0.95c-3.29,0-5.53,2.59-5.53,6.68c0,4.26,2.57,6.77,5.21,6.77
	c0.82,0,1.51-0.1,2.16-0.43v-5.52H102.62L102.62,40.22z"/>
<path class="st2" d="M108.53,32.88h1.36c1.82,0,2.85,1.05,2.85,2.9c0,2.41-1.46,3.49-2.93,3.57c-0.31,0.03-1.03,0.06-1.28,0.08
	V32.88L108.53,32.88z M116.33,48.44L112.7,41c1.98-1.05,3.11-3.19,3.11-5.34c0-3.5-2.13-5.19-5.58-5.19h-4.8v17.97h3.09v-6.78h1.38
	l2.9,6.78H116.33L116.33,48.44z"/>
<path class="st2" d="M121.41,41.33c0.72-2.37,1.43-4.55,2.08-7.32h0.05c0.72,2.77,1.36,4.95,2.03,7.32H121.41L121.41,41.33z
	 M122.59,30.47l-6.21,17.97h2.67l1.57-4.91h5.42l1.4,4.91h3.45l-5.73-17.97H122.59L122.59,30.47z"/>
<path class="st2" d="M136.66,30.47h-4.8v17.97h3.08v-6.78h1.38c3.67,0,5.91-2.98,5.91-6.01C142.23,32.16,140.1,30.47,136.66,30.47
	L136.66,30.47z M136.23,39.35c-0.32,0.03-1.07,0.05-1.29,0.07v-6.54h1.38c1.8,0,2.83,1.05,2.83,2.9
	C139.15,38.19,137.69,39.27,136.23,39.35L136.23,39.35z"/>
<polygon class="st2" points="156.51,48.44 153.43,48.44 153.43,39.79 147.03,39.79 147.03,48.44 143.98,48.44 143.98,30.47 
	147.03,30.47 147.03,37.37 153.43,37.37 153.43,30.52 156.51,30.52 156.51,48.44 "/>
<polygon class="st2" points="159.46,30.47 162.52,30.47 162.52,48.44 159.46,48.44 159.46,30.47 "/>
<path class="st2" d="M176.38,33.73c-0.75-0.46-1.97-1-3.16-1c-3.14,0-5.41,2.59-5.41,6.68c0,4.26,2.51,6.77,5.49,6.77
	c1.18,0,2.28-0.39,3.08-0.9l0.85,2.24c-0.93,0.64-2.57,1.23-4.05,1.23c-5.29,0-8.63-4.11-8.63-9.4c0-4.91,3.31-9.19,8.68-9.19
	c1.6,0,3.08,0.67,4.14,1.39L176.38,33.73L176.38,33.73z"/>
</svg>
